<svg version="1.1" id="Layer_1" xmlns="http://www.w3.org/2000/svg" xmlns:xlink="http://www.w3.org/1999/xlink" x="0px" y="0px"
	 width="100%" viewBox="0 0 500 500" enable-background="new 0 0 500 500" xml:space="preserve">
<path fill="#FEFFFF" opacity="1.000000" stroke="none" 
	d="
M331.000000,501.000000 
	C220.666687,501.000000 110.833389,501.000000 1.000059,501.000000 
	C1.000039,334.333405 1.000039,167.666794 1.000020,1.000148 
	C167.666565,1.000099 334.333130,1.000099 500.999756,1.000049 
	C500.999847,167.666519 500.999847,334.333038 500.999939,500.999786 
	C444.500000,501.000000 388.000000,501.000000 331.000000,501.000000 
M307.811157,251.352524 
	C308.182007,251.941574 308.552856,252.530624 308.924713,253.931931 
	C309.302368,255.945541 309.680023,257.959167 309.866669,260.751556 
	C309.787872,262.579163 309.709076,264.406769 309.023315,266.470459 
	C308.742767,267.963898 308.462219,269.457336 307.914124,271.589386 
	C307.894043,272.046997 307.873962,272.504578 307.420685,273.461121 
	C306.952332,274.661499 306.484009,275.861847 305.381958,277.211151 
	C305.075195,278.165344 304.768433,279.119507 304.236115,280.209198 
	C304.236115,280.209198 304.176025,280.465363 303.526093,280.392853 
	C299.902710,284.431213 296.408142,288.595612 292.617035,292.469818 
	C289.310181,295.849182 285.669067,298.901459 282.087769,302.077301 
	C282.087769,302.077301 282.091278,302.167542 281.396698,302.237122 
	C279.988403,303.845093 278.580139,305.453033 277.075134,307.052032 
	C277.075134,307.052032 277.085724,307.148590 276.415680,307.250183 
	C274.533905,309.294739 272.221008,311.085022 270.840607,313.425293 
	C262.206390,328.063202 258.306519,343.982269 258.362061,360.954498 
	C258.412201,376.267090 258.257751,391.580231 258.235352,406.893219 
	C258.233124,408.425171 258.520660,409.957489 258.740692,412.160309 
	C260.967804,410.903320 262.428589,410.166718 263.800903,409.291382 
	C291.251251,391.782501 318.006958,373.275574 343.134064,352.546204 
	C353.621887,343.893890 363.479553,334.474823 373.567169,325.341888 
	C376.945831,322.282990 379.102753,318.684174 377.584290,313.022430 
	C377.434418,311.036499 377.284515,309.050568 377.550476,306.205353 
	C377.405792,301.456543 377.261139,296.707703 377.333344,291.054413 
	C377.293976,286.677124 377.254608,282.299866 377.433502,277.234253 
	C377.415619,275.808105 377.397736,274.381958 377.640533,272.151154 
	C377.500153,270.764648 377.359802,269.378174 377.585480,267.154510 
	C377.468781,264.430298 377.352051,261.706055 377.627991,258.136902 
	C377.516174,254.430115 377.404358,250.723312 377.643829,246.172348 
	C377.689056,244.239502 377.784302,242.306229 377.768036,240.373901 
	C377.742249,237.316589 378.087952,234.055161 373.984711,232.112793 
	C371.274261,230.857697 368.563843,229.602615 365.349884,228.085876 
	C364.993073,227.961655 364.636230,227.837433 364.044525,227.088211 
	C362.304291,226.220627 360.564026,225.353043 358.281586,224.233047 
	C357.904236,224.105270 357.526855,223.977478 356.962860,223.202408 
	C355.743042,222.708099 354.523254,222.213791 352.999237,221.142151 
	C352.046814,220.712936 351.094391,220.283707 349.620911,219.631638 
	C349.115753,219.385422 348.610596,219.139191 347.892731,218.239182 
	C346.877380,217.962463 345.862030,217.685730 344.307465,217.177612 
	C343.936890,217.053268 343.566345,216.928940 342.976379,216.160278 
	C340.261200,214.918060 337.546021,213.675827 334.244324,212.193954 
	C333.835052,212.090897 333.425751,211.987839 332.869629,211.216049 
	C325.543427,208.251541 318.217224,205.287033 310.250000,202.119751 
	C309.589966,201.993317 308.929901,201.866867 307.987701,201.123474 
	C306.294617,200.500229 304.601562,199.876984 302.277527,199.029922 
	C301.618286,198.918396 300.959045,198.806885 299.953888,198.097946 
	C295.682861,196.411392 291.506012,194.409103 287.122040,193.101059 
	C276.546661,189.945633 265.832001,187.253006 255.283325,184.015884 
	C253.541229,183.481262 251.231064,181.144592 251.218597,179.624023 
	C251.205338,178.008804 253.324158,175.849091 255.047714,174.893799 
	C256.796570,173.924500 259.205261,173.843109 261.315308,173.883133 
	C268.571136,174.020798 275.822754,174.381775 283.818512,174.790161 
	C284.570160,174.773254 285.321777,174.756348 286.537231,175.360092 
	C317.743317,180.647354 347.503326,190.957123 377.612396,202.851471 
	C377.791626,199.885437 377.972473,198.273743 377.973724,196.661911 
	C377.988098,177.844742 377.842804,159.025940 378.069855,140.211563 
	C378.122040,135.889923 376.440186,134.175919 372.598907,132.750320 
	C356.131714,126.638908 339.765869,120.250099 323.417389,113.824280 
	C303.815796,106.119812 284.301483,98.192741 264.680054,90.539803 
	C258.645355,88.186096 258.071747,88.709625 258.157410,95.128677 
	C258.425079,115.191986 258.659180,135.257401 259.197235,155.314194 
	C259.321442,159.944824 257.420990,161.734619 253.275757,162.943649 
	C248.410355,164.362762 243.778534,166.591507 239.061646,168.509018 
	C232.500931,171.176102 230.365646,182.902390 232.857422,188.284164 
	C237.554291,198.428558 245.909866,204.612640 256.763336,208.717697 
	C257.181427,208.813309 257.599487,208.908920 258.117401,209.641129 
	C258.802246,209.885162 259.487091,210.129211 260.721588,210.673859 
	C261.114166,210.814392 261.506744,210.954910 262.060577,211.750137 
	C264.081635,212.709961 266.102661,213.669769 268.671997,215.055801 
	C270.378082,215.766754 272.084137,216.477707 273.999207,217.786224 
	C274.702240,218.091415 275.405243,218.396622 276.559723,218.879654 
	C276.559723,218.879654 277.031891,218.991562 277.157867,219.662384 
	C278.134979,220.027618 279.112122,220.392838 280.630463,221.029953 
	C281.217438,221.110886 281.804413,221.191833 282.628510,221.833984 
	C283.086578,222.226242 283.544678,222.618500 284.084534,223.651108 
	C284.776276,223.966385 285.468048,224.281662 286.692017,225.025894 
	C288.485504,226.337814 290.279022,227.649719 292.141479,229.605972 
	C292.821411,229.915253 293.501343,230.224533 294.719666,230.874008 
	C295.446747,231.306473 296.173859,231.738937 297.174988,232.782898 
	C300.197449,236.858765 303.219940,240.934631 306.164886,245.707214 
	C306.757751,246.821014 307.350647,247.934814 307.975891,249.048615 
	C307.975891,249.048615 307.958832,249.022461 307.869080,249.706863 
	C307.976105,250.151459 308.083130,250.596054 307.811157,251.352524 
M205.052597,175.577942 
	C205.052597,175.577942 205.100922,175.143066 205.758652,174.946671 
	C206.160751,173.958252 206.562851,172.969818 207.381348,171.516113 
	C207.908920,170.677338 208.436493,169.838562 209.604309,168.779800 
	C213.221039,165.606995 216.394470,161.564743 220.548920,159.446655 
	C228.615753,155.333908 237.143158,152.054382 245.666290,148.940186 
	C249.232590,147.637131 251.094894,146.432983 251.081543,142.138504 
	C251.034470,126.999184 251.512360,111.858612 251.730179,96.717644 
	C251.764404,94.338875 251.482727,91.955566 251.301254,88.769173 
	C213.557022,103.735352 176.723053,118.340591 139.438873,132.591660 
	C138.917542,133.045105 138.396210,133.498535 137.123413,133.891907 
	C136.114502,134.413483 135.105606,134.935043 133.376221,135.611572 
	C133.004822,137.490402 132.318405,139.367813 132.310059,141.248260 
	C132.211105,163.518005 132.227280,185.788254 132.181915,208.058289 
	C132.165115,216.307968 133.231689,217.503525 142.459076,218.962967 
	C142.459076,218.962967 142.952377,219.033890 143.149643,219.653778 
	C144.080414,219.965454 145.011169,220.277130 146.479156,220.995346 
	C147.293320,221.343674 148.107483,221.692001 149.215530,222.315887 
	C149.442307,222.458206 149.685196,222.563324 150.409500,222.994217 
	C150.605621,223.009689 150.801727,223.025146 151.427689,223.153000 
	C151.427689,223.153000 151.864059,223.069229 152.180786,223.387619 
	C152.410629,223.587524 152.674881,223.717331 153.276367,224.068451 
	C153.276367,224.068451 153.680206,224.184723 153.998901,224.806152 
	C167.361145,230.487915 180.651260,236.348526 194.114868,241.779022 
	C201.278763,244.668564 208.743073,246.813370 216.710220,249.603409 
	C217.179016,249.625275 217.647827,249.647125 218.488556,250.280777 
	C225.012787,252.277756 231.537018,254.274719 238.782837,256.587494 
	C239.563889,256.618347 240.344940,256.649200 241.534943,257.268127 
	C244.374252,257.941986 247.213577,258.615845 250.694641,259.619415 
	C251.171112,259.628113 251.647568,259.636810 252.546600,260.214478 
	C254.404495,260.709198 256.262390,261.203918 258.481934,262.279266 
	C259.224091,262.814178 259.966248,263.349091 260.469513,264.435059 
	C260.946136,264.987518 261.422791,265.539948 262.027039,266.090271 
	C262.027039,266.090271 262.061584,265.967407 261.882294,266.667633 
	C261.874664,267.389282 261.867065,268.110962 261.295929,269.055023 
	C261.013367,269.734009 260.730804,270.412964 259.682922,271.541718 
	C256.693909,271.953217 253.704910,272.364716 250.221054,272.155304 
	C247.167297,272.154449 244.113541,272.153625 240.431061,271.948425 
	C239.992661,271.941895 239.554245,271.935364 238.808929,271.311249 
	C237.526459,271.209717 236.244003,271.108185 234.218155,270.560455 
	C232.486267,270.502930 230.754395,270.445374 228.401932,270.049774 
	C227.935272,270.023926 227.468628,269.998047 226.779114,269.376251 
	C225.879623,269.323395 224.980118,269.270538 223.330109,268.749878 
	C221.867722,268.656189 220.405334,268.562469 218.365784,268.123383 
	C217.924393,268.067963 217.483002,268.012573 216.967880,267.450134 
	C216.324234,267.377075 215.680603,267.304016 214.237686,266.985931 
	C212.851501,266.946411 211.465317,266.906891 210.135605,266.922699 
	C210.135605,266.922699 210.140411,266.843811 209.913300,266.300995 
	C209.251465,266.222717 208.589615,266.144440 207.229858,265.567108 
	C205.228302,265.340881 203.226746,265.114624 200.968277,264.350159 
	C200.315750,264.227783 199.663223,264.105408 198.262146,263.545044 
	C196.822861,263.525421 195.383591,263.505829 193.320999,263.162506 
	C192.858353,263.114655 192.395721,263.066833 191.787720,262.383453 
	C190.833984,262.273987 189.880234,262.164520 188.205582,261.635254 
	C186.543549,261.384705 184.881531,261.134155 183.032425,260.411896 
	C182.406509,260.391968 181.780579,260.372070 180.439560,260.084686 
	C179.682144,260.023254 178.924744,259.961792 177.933838,259.359375 
	C177.300049,259.261505 176.666275,259.163635 175.299561,258.588226 
	C173.552246,258.375946 171.804932,258.163666 169.942535,257.454559 
	C169.327713,257.373596 168.712906,257.292603 167.392075,256.958099 
	C166.396301,256.908051 165.400528,256.858032 164.069916,256.281708 
	C162.761017,255.962997 161.452133,255.644272 159.497925,255.053345 
	C159.035049,255.013931 158.572159,254.974533 157.919556,254.373642 
	C157.277359,254.196533 156.635178,254.019424 155.268555,253.401047 
	C154.146286,253.273712 153.024017,253.146378 151.784302,252.461823 
	C151.202835,252.356308 150.621368,252.250809 149.338257,251.660461 
	C144.530548,250.440536 139.722824,249.220612 134.859909,247.512985 
	C134.500107,247.277893 134.140305,247.042801 133.780502,246.807709 
	C133.680084,247.215851 133.579651,247.623978 133.018097,248.817093 
	C132.800385,251.628143 132.370377,254.441910 132.406387,257.249725 
	C132.499329,264.500275 132.798126,271.748199 132.825531,279.820343 
	C132.904907,281.215576 132.984268,282.610809 132.826660,284.877991 
	C132.840561,287.575500 132.854477,290.273041 132.376541,293.629028 
	C132.274109,301.716125 132.185547,309.803467 132.062943,317.890259 
	C132.008255,321.496765 133.715515,323.789124 137.240738,325.547699 
	C171.125244,359.526245 210.362061,386.388092 251.432571,413.044800 
	C251.703461,409.629303 251.948837,408.015045 251.941422,406.401978 
	C251.858765,388.426636 252.223434,370.431610 251.490814,352.481812 
	C250.738937,334.060394 244.412262,317.463531 232.282654,303.286560 
	C230.415161,301.103882 228.879120,298.637573 226.492523,295.338623 
	C229.683273,294.985382 231.575760,294.851257 233.442352,294.554352 
	C238.094528,293.814301 242.734940,293.000214 248.042053,292.291199 
	C248.697449,292.189850 249.352859,292.088470 250.507263,292.373016 
	C255.661728,290.250580 260.816193,288.128113 266.568787,285.848175 
	C267.382782,285.225525 268.196808,284.602875 269.660034,283.953339 
	C270.248260,283.273071 270.836517,282.592834 271.915833,281.406982 
	C273.317688,279.007629 274.719543,276.608276 276.766632,273.853119 
	C276.569458,270.801788 276.372284,267.750488 276.172028,263.955322 
	C275.107117,260.060059 274.052643,256.157379 269.375488,253.996094 
	C265.577972,251.363815 261.780487,248.731522 257.588806,245.500549 
	C256.444061,245.152206 255.299347,244.803848 254.000214,243.899216 
	C253.332031,243.615692 252.663849,243.332169 251.626953,242.486435 
	C250.791656,242.200165 249.956360,241.913895 248.767776,241.054306 
	C245.554062,239.324600 242.340363,237.594894 238.915146,235.220627 
	C238.398834,234.838058 237.896439,234.434845 237.364120,234.076004 
	C229.299622,228.639496 220.343307,224.146072 213.379318,217.549103 
	C203.801559,208.476135 199.175980,196.868484 203.558746,183.223450 
	C203.759415,182.598694 203.238708,181.742218 203.151611,180.409180 
	C203.155716,180.014542 203.159821,179.619904 203.798325,178.983154 
	C204.170609,177.986557 204.542908,176.989960 205.052597,175.577942 
z"/>
<path fill="#7AB7DC" opacity="1.000000" stroke="none" 
	d="
M139.889084,132.945831 
	C176.723053,118.340591 213.557022,103.735352 251.301254,88.769173 
	C251.482727,91.955566 251.764404,94.338875 251.730179,96.717644 
	C251.512360,111.858612 251.034470,126.999184 251.081543,142.138504 
	C251.094894,146.432983 249.232590,147.637131 245.666290,148.940186 
	C237.143158,152.054382 228.615753,155.333908 220.548920,159.446655 
	C216.394470,161.564743 213.221039,165.606995 208.861145,168.895782 
	C203.941406,168.340775 199.762924,167.092041 195.588623,167.105865 
	C182.467285,167.149338 169.345825,167.612701 156.227829,168.023209 
	C148.832245,168.254654 141.443420,168.701828 134.027985,168.577789 
	C134.035187,157.221375 134.065933,146.338989 134.096695,135.456619 
	C135.105606,134.935043 136.114502,134.413483 137.758835,133.916901 
	C138.892532,133.609894 139.390808,133.277863 139.889084,132.945831 
z"/>
<path fill="#77ADD5" opacity="1.000000" stroke="none" 
	d="
M286.073425,174.739456 
	C285.321777,174.756348 284.570160,174.773254 283.311157,174.392151 
	C274.000458,170.743225 264.893250,171.402191 255.973389,172.720245 
	C249.538071,173.671173 248.966934,175.327774 248.659119,182.871643 
	C247.570877,183.144180 246.147491,183.510315 246.120667,183.959808 
	C245.835129,188.743652 242.858826,191.259460 238.597244,192.879181 
	C231.704834,185.414764 232.708954,174.858475 240.828812,170.178589 
	C245.040970,167.750931 249.651291,165.625229 254.353333,164.542282 
	C259.382660,163.383911 261.567810,161.032257 261.507294,156.032211 
	C267.747742,155.594147 273.599274,155.242783 279.431702,154.690323 
	C283.524384,154.302658 287.863770,152.467819 291.614136,153.339462 
	C300.098846,155.311508 308.270233,158.612228 316.606628,161.253891 
	C319.083405,162.038742 321.676331,162.868591 324.231598,162.920990 
	C333.793549,163.117065 343.363098,163.078934 352.927185,162.944672 
	C355.368561,162.910416 358.157501,162.824295 360.166931,161.676712 
	C365.315735,158.736267 370.481049,158.410919 375.984650,160.483490 
	C375.991669,165.968658 375.990753,170.988098 375.571838,175.995895 
	C371.079651,175.935898 366.999268,175.724335 362.932678,175.877899 
	C356.982391,176.102615 351.045441,176.788696 345.096130,176.891739 
	C341.317841,176.957169 337.528809,176.076904 333.742188,176.056183 
	C327.564606,176.022385 327.037964,176.715057 326.659027,182.812881 
	C314.653809,179.812988 303.015228,176.877975 291.324768,174.166702 
	C289.705719,173.791199 287.830200,174.521225 286.073425,174.739456 
z"/>
<path fill="#5081E3" opacity="1.000000" stroke="none" 
	d="
M229.022507,270.387848 
	C230.754395,270.445374 232.486267,270.502930 234.766022,271.023987 
	C236.581192,271.634674 237.848526,271.781769 239.115845,271.928864 
	C239.554245,271.935364 239.992661,271.941895 241.024597,272.322266 
	C244.650726,272.722839 247.683319,272.749512 250.715912,272.776184 
	C253.704910,272.364716 256.693909,271.953217 260.357239,271.241760 
	C261.307495,270.238708 261.583466,269.535675 261.859436,268.832611 
	C261.867065,268.110962 261.874664,267.389282 262.396606,266.330811 
	C267.236389,266.670319 271.561829,267.346649 275.915741,268.460266 
	C276.003265,270.668030 276.062317,272.438477 276.121399,274.208954 
	C274.719543,276.608276 273.317688,279.007629 271.414734,281.709167 
	C270.275574,282.331421 269.637512,282.651459 268.594208,282.981812 
	C266.067780,282.991852 263.731445,282.691803 263.745941,286.271973 
	C259.004944,288.354248 254.506607,290.170685 250.008255,291.987091 
	C249.352859,292.088470 248.697449,292.189850 247.287262,292.170959 
	C245.678268,292.000549 244.824051,291.950348 243.935455,291.554382 
	C240.317505,288.138428 237.265549,284.110992 231.391525,286.792389 
	C229.369186,287.715607 226.562424,287.360901 224.200027,287.010284 
	C218.697968,286.193726 213.273727,284.372742 207.770981,284.157013 
	C200.179993,283.859406 192.547119,284.703827 184.929306,284.979370 
	C181.995010,285.085541 179.052612,284.989716 176.114243,284.956757 
	C170.295731,284.891541 164.476379,284.852783 158.659348,284.717804 
	C150.126541,284.519806 141.595444,284.246979 133.063629,284.006042 
	C132.984268,282.610809 132.904907,281.215576 133.311920,279.326202 
	C134.196457,277.834900 134.876999,276.857269 134.947662,275.837433 
	C135.476349,268.206329 135.663361,268.254700 143.440109,269.537476 
	C147.293823,270.173157 151.329865,269.660156 155.281128,269.759125 
	C159.653870,269.868622 164.099747,269.648376 168.371063,270.391815 
	C171.733932,270.977112 173.620850,270.389313 175.095657,267.287476 
	C175.554840,266.321716 178.095520,265.187195 178.449005,265.504608 
	C183.243469,269.809662 186.105713,266.423187 189.411407,263.094543 
	C190.491959,263.056152 191.212524,263.037567 191.933075,263.018982 
	C192.395721,263.066833 192.858353,263.114655 193.659271,263.655823 
	C196.106079,265.731964 198.036270,268.170319 200.373184,268.657349 
	C202.719345,269.146362 205.470795,267.690857 208.395645,267.064514 
	C209.211243,266.975586 209.675827,266.909698 210.140411,266.843811 
	C210.140411,266.843811 210.135605,266.922699 210.134705,267.261414 
	C211.777039,267.775696 213.420303,267.951324 215.393402,268.101990 
	C216.162689,268.037048 216.602158,267.997101 217.041611,267.957153 
	C217.483002,268.012573 217.924393,268.067963 218.680069,268.629456 
	C222.697556,274.074127 225.108292,274.375183 229.022507,270.387848 
z"/>
<path fill="#396DED" opacity="1.000000" stroke="none" 
	d="
M377.134644,307.064636 
	C377.284515,309.050568 377.434418,311.036499 377.189514,313.599792 
	C375.656006,316.849823 375.168823,320.172119 373.264740,322.081573 
	C365.411041,329.957458 357.127594,337.404846 349.001404,344.587524 
	C349.450134,342.118286 349.640167,339.967407 350.408478,338.048004 
	C351.624725,335.009583 350.606110,332.905182 347.794067,332.196014 
	C333.911407,328.694824 319.727325,329.530334 305.700836,330.446991 
	C295.349701,331.123474 285.103485,331.593781 275.167023,328.668671 
	C271.707703,327.650269 268.992828,327.408051 265.999237,328.632111 
	C269.725037,321.855408 273.417786,315.440216 277.508789,309.016113 
	C280.643707,309.009308 283.646851,308.273193 286.068573,309.147552 
	C294.393127,312.153290 302.623322,310.765900 311.026978,309.962433 
	C316.829712,309.407654 322.757172,310.245605 328.630707,310.321533 
	C337.119507,310.431335 345.639282,310.867065 354.091064,310.318848 
	C361.810150,309.818146 369.456329,308.193787 377.134644,307.064636 
z"/>
<path fill="#4174E9" opacity="1.000000" stroke="none" 
	d="
M377.342560,306.635010 
	C369.456329,308.193787 361.810150,309.818146 354.091064,310.318848 
	C345.639282,310.867065 337.119507,310.431335 328.630707,310.321533 
	C322.757172,310.245605 316.829712,309.407654 311.026978,309.962433 
	C302.623322,310.765900 294.393127,312.153290 286.068573,309.147552 
	C283.646851,308.273193 280.643707,309.009308 277.509399,308.703003 
	C277.103058,307.982056 277.094391,307.565338 277.085693,307.148590 
	C277.085724,307.148590 277.075134,307.052032 277.424927,306.926727 
	C279.213562,305.256805 280.652435,303.712189 282.091278,302.167542 
	C282.091278,302.167542 282.087769,302.077301 282.486328,302.057922 
	C287.588287,298.692657 292.291718,295.346741 297.372437,291.995483 
	C305.813232,292.495270 313.876801,292.999329 321.939789,293.513245 
	C322.093811,293.523102 322.236053,293.701141 322.391113,293.714264 
	C326.125427,294.031097 329.856018,294.439270 333.597351,294.612122 
	C336.860107,294.762878 340.135468,294.623199 343.404816,294.655945 
	C345.220459,294.674103 347.035004,294.789581 348.850433,294.849060 
	C354.877136,295.046600 360.903229,295.285797 366.931580,295.386963 
	C367.943878,295.403961 368.977783,294.847656 369.981781,294.498871 
	C372.366364,293.670471 374.739014,292.807739 377.116486,291.958862 
	C377.261139,296.707703 377.405792,301.456543 377.342560,306.635010 
z"/>
<path fill="#4779E7" opacity="1.000000" stroke="none" 
	d="
M132.945145,284.442017 
	C141.595444,284.246979 150.126541,284.519806 158.659348,284.717804 
	C164.476379,284.852783 170.295731,284.891541 176.114243,284.956757 
	C179.052612,284.989716 181.995010,285.085541 184.929306,284.979370 
	C192.547119,284.703827 200.179993,283.859406 207.770981,284.157013 
	C213.273727,284.372742 218.697968,286.193726 224.200027,287.010284 
	C226.562424,287.360901 229.369186,287.715607 231.391525,286.792389 
	C237.265549,284.110992 240.317505,288.138428 243.478851,291.579498 
	C238.015503,292.312714 232.930481,292.402863 227.960022,293.203888 
	C226.476593,293.442963 225.313919,295.672302 223.952118,297.336578 
	C221.406433,300.869232 218.810654,302.289948 214.212234,301.252747 
	C207.529510,299.745514 200.522125,299.675507 193.652130,299.003448 
	C192.828156,298.922852 191.971405,299.026794 191.173828,298.848511 
	C172.197449,294.605927 153.110367,298.165070 134.057526,297.618652 
	C133.647797,295.805481 133.258087,294.388031 132.868378,292.970551 
	C132.854477,290.273041 132.840561,287.575500 132.945145,284.442017 
z"/>
<path fill="#6790D1" opacity="1.000000" stroke="none" 
	d="
M153.680206,224.184723 
	C153.680206,224.184723 153.276367,224.068451 153.006927,223.721436 
	C152.493347,223.138565 152.202209,223.036835 151.864059,223.069229 
	C151.864059,223.069229 151.427689,223.153000 151.220871,222.694824 
	C151.693420,221.209442 152.280060,219.380783 153.067734,219.289658 
	C157.123566,218.820450 161.231308,218.804062 165.320282,218.615479 
	C167.587250,218.510941 169.854691,218.404388 172.118668,218.250961 
	C173.978302,218.124924 175.921234,217.485352 177.675964,217.834229 
	C190.050110,220.294388 202.265900,223.807922 215.384048,223.123413 
	C220.785248,226.503189 225.893661,229.728088 230.818146,233.230347 
	C227.794510,235.895401 224.954788,238.283081 221.487488,241.198456 
	C229.488861,244.931595 222.220901,246.479980 220.671417,249.039749 
	C219.614166,249.242203 218.865402,249.455582 218.116623,249.668976 
	C217.647827,249.647125 217.179016,249.625275 216.285370,249.157471 
	C208.261276,245.487717 200.701111,242.167450 193.051956,239.066711 
	C185.153976,235.865097 177.185944,232.833496 169.216873,229.811005 
	C164.067429,227.857925 158.861069,226.054962 153.680206,224.184723 
z"/>
<path fill="#6992D7" opacity="1.000000" stroke="none" 
	d="
M306.242401,245.010498 
	C303.219940,240.934631 300.197449,236.858765 297.241119,232.173203 
	C301.353149,229.825073 305.321747,226.844940 309.459839,226.587326 
	C320.665741,225.889679 331.943634,226.348221 343.816864,226.348221 
	C344.637115,227.816147 344.353882,232.017715 349.383514,230.384018 
	C353.195068,229.145981 357.260498,228.689529 361.594910,227.897491 
	C362.744385,227.844223 363.511902,227.778717 364.279419,227.713211 
	C364.636230,227.837433 364.993073,227.961655 365.673767,228.493088 
	C366.678833,229.578110 367.360077,230.255905 367.901245,231.250763 
	C367.593842,232.542892 367.426514,233.517975 367.259186,234.493057 
	C367.647949,234.641739 368.036713,234.790405 368.425476,234.939087 
	C368.950867,233.963593 369.476257,232.988098 370.364746,232.048981 
	C371.907867,232.296555 373.087891,232.507782 374.267914,232.719009 
	C378.087952,234.055161 377.742249,237.316589 377.768036,240.373901 
	C377.784302,242.306229 377.689056,244.239502 377.141846,246.567566 
	C374.556976,241.151718 370.543915,240.902023 365.531799,242.915131 
	C364.385437,243.375534 362.900146,242.996155 361.570862,242.996292 
	C349.194397,242.997498 336.817963,242.993317 324.441498,243.000351 
	C321.697144,243.001907 318.658173,242.305771 316.285370,243.255844 
	C313.515808,244.364777 308.771545,241.601395 307.766846,246.862488 
	C307.104462,246.150070 306.673431,245.580292 306.242401,245.010498 
z"/>
<path fill="#7399CC" opacity="1.000000" stroke="none" 
	d="
M258.017578,209.004547 
	C257.599487,208.908920 257.181427,208.813309 256.368530,208.301605 
	C253.633606,205.940399 251.293442,203.995285 249.162262,201.764801 
	C253.291290,199.983810 257.173248,198.376266 261.142548,197.025360 
	C264.809082,195.777481 268.454224,194.675171 269.394470,190.009979 
	C277.273010,192.301956 284.742004,194.641357 292.248871,196.852402 
	C294.884796,197.628799 297.613464,198.090164 300.299805,198.695374 
	C300.959045,198.806885 301.618286,198.918396 302.680420,199.473053 
	C304.812134,200.524246 306.541016,201.132339 308.269867,201.740417 
	C308.929901,201.866867 309.589966,201.993317 310.673676,202.534424 
	C313.734558,204.288437 316.371735,205.627777 318.836853,207.293488 
	C313.433411,210.239273 308.246796,212.955612 302.937073,215.405228 
	C301.713745,215.969620 299.667297,216.218491 298.697998,215.569489 
	C296.448090,214.063004 295.171631,214.650558 293.125183,216.077179 
	C290.721161,217.753021 287.281097,220.832108 285.689880,214.853912 
	C285.525269,214.235336 284.255768,213.910873 283.498932,213.449936 
	C283.274872,214.392410 282.967346,215.324219 282.845215,216.279724 
	C282.633484,217.936356 282.536499,219.607635 282.391388,221.272781 
	C281.804413,221.191833 281.217438,221.110886 280.280640,220.575653 
	C278.964539,219.744751 277.998199,219.368164 277.031891,218.991562 
	C277.031891,218.991562 276.559723,218.879654 276.247925,218.488678 
	C275.220795,217.794693 274.505524,217.491684 273.790222,217.188660 
	C272.084137,216.477707 270.378082,215.766754 268.303284,214.537949 
	C265.922791,213.045212 263.911072,212.070328 261.899323,211.095444 
	C261.506744,210.954910 261.114166,210.814392 260.333740,210.277786 
	C259.303131,209.589325 258.660339,209.296921 258.017578,209.004547 
z"/>
<path fill="#487BE6" opacity="1.000000" stroke="none" 
	d="
M377.224915,291.506653 
	C374.739014,292.807739 372.366364,293.670471 369.981781,294.498871 
	C368.977783,294.847656 367.943878,295.403961 366.931580,295.386963 
	C360.903229,295.285797 354.877136,295.046600 348.850433,294.849060 
	C347.035004,294.789581 345.220459,294.674103 343.404816,294.655945 
	C340.135468,294.623199 336.860107,294.762878 333.597351,294.612122 
	C329.856018,294.439270 326.125427,294.031097 322.391113,293.714264 
	C322.236053,293.701141 322.093811,293.523102 321.939789,293.513245 
	C313.876801,292.999329 305.813232,292.495270 297.409424,291.649200 
	C299.438080,287.693939 301.807037,284.079651 304.176025,280.465363 
	C304.176025,280.465363 304.236115,280.209198 304.531830,280.019043 
	C305.208801,279.614807 305.590057,279.400665 306.257019,279.425537 
	C308.635712,280.064362 310.723694,280.777557 312.822571,280.811310 
	C323.617981,280.984985 334.416290,280.970886 345.213348,281.055878 
	C347.299622,281.072327 349.419800,281.529755 351.464142,281.283569 
	C359.652069,280.297607 367.816315,279.114685 376.296722,277.997742 
	C376.807861,277.968079 377.011566,277.945312 377.215271,277.922577 
	C377.254608,282.299866 377.293976,286.677124 377.224915,291.506653 
z"/>
<path fill="#75ABD5" opacity="1.000000" stroke="none" 
	d="
M134.051544,169.051819 
	C141.443420,168.701828 148.832245,168.254654 156.227829,168.023209 
	C169.345825,167.612701 182.467285,167.149338 195.588623,167.105865 
	C199.762924,167.092041 203.941406,168.340775 208.541016,169.005768 
	C208.436493,169.838562 207.908920,170.677338 206.852982,171.783447 
	C205.849838,172.690430 205.375076,173.330078 204.568970,174.038269 
	C203.824310,175.069977 203.411011,176.033157 202.994949,177.369141 
	C203.049438,178.236389 203.106674,178.730835 203.163925,179.225266 
	C203.159821,179.619904 203.155716,180.014542 202.857468,180.792404 
	C202.345261,181.441803 202.127197,181.707977 201.593857,181.982666 
	C200.856079,181.994537 200.433594,181.997879 199.657806,181.847931 
	C195.591782,181.178802 191.861786,180.132187 188.169708,180.252197 
	C179.123474,180.546265 170.100800,181.512238 161.055710,181.923416 
	C157.804947,182.071182 153.723572,180.034714 151.402542,181.379364 
	C145.601135,184.740280 139.854599,182.892517 134.052765,182.566895 
	C134.037766,177.751114 134.044647,173.401474 134.051544,169.051819 
z"/>
<path fill="#98C5E1" opacity="1.000000" stroke="none" 
	d="
M248.953278,202.050171 
	C251.293442,203.995285 253.633606,205.940399 256.071167,208.178314 
	C245.909866,204.612640 237.554291,198.428558 232.857422,188.284164 
	C230.365646,182.902390 232.500931,171.176102 239.061646,168.509018 
	C243.778534,166.591507 248.410355,164.362762 253.275757,162.943649 
	C257.420990,161.734619 259.321442,159.944824 259.197235,155.314194 
	C258.659180,135.257401 258.425079,115.191986 258.157410,95.128677 
	C258.071747,88.709625 258.645355,88.186096 264.680054,90.539803 
	C284.301483,98.192741 303.815796,106.119812 323.417389,113.824280 
	C339.765869,120.250099 356.131714,126.638908 372.598907,132.750320 
	C376.440186,134.175919 378.122040,135.889923 378.069855,140.211563 
	C377.842804,159.025940 377.988098,177.844742 377.973724,196.661911 
	C377.972473,198.273743 377.791626,199.885437 377.612396,202.851471 
	C347.503326,190.957123 317.743317,180.647354 286.305328,175.049774 
	C287.830200,174.521225 289.705719,173.791199 291.324768,174.166702 
	C303.015228,176.877975 314.653809,179.812988 327.044495,182.847107 
	C330.813049,183.724670 333.845978,184.432220 337.144043,185.400833 
	C349.991852,190.228760 362.574493,194.795624 376.001221,199.668823 
	C376.001221,193.580307 376.001221,188.790756 376.012390,183.557266 
	C376.012299,180.744720 376.001038,178.376144 375.989807,176.007553 
	C375.990753,170.988098 375.991669,165.968658 375.996643,160.012970 
	C376.004395,153.081940 375.820190,147.079025 376.078796,141.095245 
	C376.247559,137.190506 374.332672,135.359711 371.022308,134.136230 
	C361.219574,130.513214 351.434692,126.840141 341.676727,123.098305 
	C333.993256,120.151970 326.354919,117.087364 318.705658,114.052383 
	C307.955658,109.787148 297.206604,105.519386 286.471558,101.216705 
	C279.451324,98.402946 272.509918,95.383255 265.430450,92.729980 
	C261.207550,91.147301 259.672272,92.668373 260.037506,97.205986 
	C260.449249,102.320808 260.891113,107.448006 260.946594,112.573860 
	C261.103363,127.059135 261.069153,141.546478 261.110168,156.033005 
	C261.567810,161.032257 259.382660,163.383911 254.353333,164.542282 
	C249.651291,165.625229 245.040970,167.750931 240.828812,170.178589 
	C232.708954,174.858475 231.704834,185.414764 238.756531,193.182220 
	C242.461884,196.452728 245.707581,199.251450 248.953278,202.050171 
z"/>
<path fill="#6A93CE" opacity="1.000000" stroke="none" 
	d="
M215.091263,222.968536 
	C202.265900,223.807922 190.050110,220.294388 177.675964,217.834229 
	C175.921234,217.485352 173.978302,218.124924 172.118668,218.250961 
	C169.854691,218.404388 167.587250,218.510941 165.320282,218.615479 
	C161.231308,218.804062 157.123566,218.820450 153.067734,219.289658 
	C152.280060,219.380783 151.693420,221.209442 151.005951,222.638611 
	C150.801727,223.025146 150.605621,223.009689 150.057831,222.646240 
	C149.479828,222.105743 149.218323,222.019760 148.921646,222.040329 
	C148.107483,221.692001 147.293320,221.343674 146.050446,220.552246 
	C144.731934,219.750748 143.842163,219.392319 142.952377,219.033890 
	C142.952377,219.033890 142.459076,218.962967 142.159058,218.509674 
	C135.802536,216.280411 132.305984,212.848679 134.434433,205.965683 
	C139.898376,205.944733 145.000961,205.875946 150.097458,206.021255 
	C159.122849,206.278610 168.146591,206.619370 177.167007,207.016235 
	C182.843658,207.266006 188.516174,207.637375 194.184479,208.039536 
	C197.464035,208.272217 200.731567,208.674179 204.151520,209.308746 
	C207.896103,214.067871 211.493683,218.518204 215.091263,222.968536 
z"/>
<path fill="#6A93CE" opacity="1.000000" stroke="none" 
	d="
M282.509949,221.553375 
	C282.536499,219.607635 282.633484,217.936356 282.845215,216.279724 
	C282.967346,215.324219 283.274872,214.392410 283.498932,213.449936 
	C284.255768,213.910873 285.525269,214.235336 285.689880,214.853912 
	C287.281097,220.832108 290.721161,217.753021 293.125183,216.077179 
	C295.171631,214.650558 296.448090,214.063004 298.697998,215.569489 
	C299.667297,216.218491 301.713745,215.969620 302.937073,215.405228 
	C308.246796,212.955612 313.433411,210.239273 319.130188,207.321838 
	C320.082855,207.313446 320.570099,207.603073 321.039246,208.314072 
	C320.736084,211.901077 322.255402,213.193817 325.337036,213.010681 
	C327.276672,212.895416 329.225250,212.930969 331.453430,212.873413 
	C332.163513,212.526917 332.589996,212.205841 333.016479,211.884766 
	C333.425751,211.987839 333.835052,212.090897 334.633942,212.630005 
	C337.747620,214.312241 340.471710,215.558426 343.195770,216.804596 
	C343.566345,216.928940 343.936890,217.053268 344.695190,217.597046 
	C346.090393,218.308655 347.097931,218.600815 348.105438,218.892960 
	C348.610596,219.139191 349.115753,219.385422 349.825012,220.024780 
	C350.024933,220.608734 350.020782,220.799530 349.753113,221.202118 
	C349.725647,224.696808 349.725647,224.696808 355.390564,223.977814 
	C356.212280,223.933167 356.680878,223.891434 357.149506,223.849701 
	C357.526855,223.977478 357.904236,224.105270 358.658630,224.635986 
	C359.761414,225.987717 360.487183,226.936493 361.212952,227.885269 
	C357.260498,228.689529 353.195068,229.145981 349.383514,230.384018 
	C344.353882,232.017715 344.637115,227.816147 343.816864,226.348221 
	C331.943634,226.348221 320.665741,225.889679 309.459839,226.587326 
	C305.321747,226.844940 301.353149,229.825073 297.104095,231.867447 
	C296.173859,231.738937 295.446747,231.306473 294.363678,230.432556 
	C293.362640,229.647964 292.717560,229.304794 292.072510,228.961624 
	C290.279022,227.649719 288.485504,226.337814 286.337891,224.532593 
	C285.323425,223.696442 284.663086,223.353592 284.002747,223.010757 
	C283.544678,222.618500 283.086578,222.226242 282.509949,221.553375 
z"/>
<path fill="#5585DE" opacity="1.000000" stroke="none" 
	d="
M377.235352,258.981842 
	C377.352051,261.706055 377.468781,264.430298 377.023621,267.580444 
	C371.697113,268.190857 366.933624,268.424866 362.167297,268.543152 
	C358.723999,268.628632 355.276825,268.569733 351.831421,268.557678 
	C349.208618,268.548492 346.585754,268.519928 343.963104,268.485840 
	C332.672241,268.339111 321.405975,266.410583 310.067749,267.783142 
	C309.906494,267.108765 309.768372,266.671570 309.630280,266.234375 
	C309.709076,264.406769 309.787872,262.579163 310.227997,260.124512 
	C312.027496,257.962280 313.231415,255.557755 314.957916,255.092545 
	C317.649994,254.367111 320.699402,254.887558 323.592438,255.003799 
	C330.932739,255.298706 338.275085,255.999130 345.607422,255.893890 
	C351.681854,255.806717 357.787048,258.148956 363.956573,254.463516 
	C366.978882,252.658096 371.526062,253.405304 375.067902,253.030563 
	C375.953278,255.461563 376.594299,257.221710 377.235352,258.981842 
z"/>
<path fill="#5081E3" opacity="1.000000" stroke="none" 
	d="
M310.090912,268.020355 
	C321.405975,266.410583 332.672241,268.339111 343.963104,268.485840 
	C346.585754,268.519928 349.208618,268.548492 351.831421,268.557678 
	C355.276825,268.569733 358.723999,268.628632 362.167297,268.543152 
	C366.933624,268.424866 371.697113,268.190857 376.840637,267.999023 
	C377.359802,269.378174 377.500153,270.764648 377.210266,272.695801 
	C376.516449,274.828522 376.252869,276.416565 375.989319,278.004639 
	C367.816315,279.114685 359.652069,280.297607 351.464142,281.283569 
	C349.419800,281.529755 347.299622,281.072327 345.213348,281.055878 
	C334.416290,280.970886 323.617981,280.984985 312.822571,280.811310 
	C310.723694,280.777557 308.635712,280.064362 306.285400,279.069336 
	C306.023926,278.003448 306.019806,277.532806 306.015686,277.062195 
	C306.484009,275.861847 306.952332,274.661499 307.974670,273.192657 
	C309.010773,272.279663 309.492889,271.635132 309.983459,270.618896 
	C310.024933,269.504913 310.057922,268.762634 310.090912,268.020355 
z"/>
<path fill="#5B8ADA" opacity="1.000000" stroke="none" 
	d="
M377.431671,258.559387 
	C376.594299,257.221710 375.953278,255.461563 375.067902,253.030563 
	C371.526062,253.405304 366.978882,252.658096 363.956573,254.463516 
	C357.787048,258.148956 351.681854,255.806717 345.607422,255.893890 
	C338.275085,255.999130 330.932739,255.298706 323.592438,255.003799 
	C320.699402,254.887558 317.649994,254.367111 314.957916,255.092545 
	C313.231415,255.557755 312.027496,257.962280 310.323486,259.735138 
	C309.680023,257.959167 309.302368,255.945541 308.964844,253.182175 
	C309.026215,251.973495 309.047424,251.514572 309.283752,250.861160 
	C308.985504,250.118607 308.472168,249.570541 307.958832,249.022461 
	C307.958832,249.022461 307.975891,249.048615 307.992188,248.708801 
	C308.005035,247.914368 308.001617,247.459747 307.998199,247.005112 
	C308.771545,241.601395 313.515808,244.364777 316.285370,243.255844 
	C318.658173,242.305771 321.697144,243.001907 324.441498,243.000351 
	C336.817963,242.993317 349.194397,242.997498 361.570862,242.996292 
	C362.900146,242.996155 364.385437,243.375534 365.531799,242.915131 
	C370.543915,240.902023 374.556976,241.151718 376.966217,246.989655 
	C377.404358,250.723312 377.516174,254.430115 377.431671,258.559387 
z"/>
<path fill="#608CE0" opacity="1.000000" stroke="none" 
	d="
M189.051407,263.114380 
	C186.105713,266.423187 183.243469,269.809662 178.449005,265.504608 
	C178.095520,265.187195 175.554840,266.321716 175.095657,267.287476 
	C173.620850,270.389313 171.733932,270.977112 168.371063,270.391815 
	C164.099747,269.648376 159.653870,269.868622 155.281128,269.759125 
	C151.329865,269.660156 147.293823,270.173157 143.440109,269.537476 
	C135.663361,268.254700 135.476349,268.206329 134.947662,275.837433 
	C134.876999,276.857269 134.196457,277.834900 133.406525,278.914612 
	C132.798126,271.748199 132.499329,264.500275 132.406387,257.249725 
	C132.370377,254.441910 132.800385,251.628143 133.484344,248.428528 
	C134.272659,248.040161 134.594162,248.027054 134.915115,248.000687 
	C139.722824,249.220612 144.530548,250.440536 149.808685,252.069946 
	C150.820007,252.659317 151.360870,252.839188 151.901749,253.019043 
	C153.024017,253.146378 154.146286,253.273712 155.740875,253.846283 
	C156.845230,254.506042 157.477249,254.720566 158.109283,254.935120 
	C158.572159,254.974533 159.035049,255.013931 160.041229,255.421509 
	C161.857941,256.129089 163.131348,256.468536 164.404755,256.807983 
	C165.400528,256.858032 166.396301,256.908051 167.917938,257.300842 
	C168.981750,257.746216 169.519684,257.848816 170.057617,257.951416 
	C171.804932,258.163666 173.552246,258.375946 175.797974,259.019623 
	C176.920044,259.600800 177.543686,259.750549 178.167328,259.900330 
	C178.924744,259.961792 179.682144,260.023254 180.996033,260.413147 
	C182.108185,260.788971 182.663834,260.836273 183.219498,260.883606 
	C184.881531,261.134155 186.543549,261.384705 188.588959,262.017151 
	C188.991547,262.638275 189.017899,262.876709 189.051407,263.114380 
z"/>
<path fill="#6D92F1" opacity="1.000000" stroke="none" 
	d="
M276.750671,307.199402 
	C277.094391,307.565338 277.103058,307.982056 277.111145,308.711914 
	C273.417786,315.440216 269.725037,321.855408 265.841278,328.973267 
	C264.090179,337.435394 261.476044,345.155304 261.182892,352.962372 
	C260.510498,370.869812 260.970032,388.819702 260.970032,407.531525 
	C263.269714,406.358215 265.376282,405.523163 267.225647,404.299469 
	C276.550507,398.129395 285.896942,391.984741 295.057739,385.576599 
	C300.950653,381.454346 306.497314,376.840485 312.269196,372.540955 
	C319.399780,367.229370 326.638214,362.062561 333.762878,356.743164 
	C338.899445,352.908142 343.926331,348.926178 349.002106,345.009705 
	C357.127594,337.404846 365.411041,329.957458 373.264740,322.081573 
	C375.168823,320.172119 375.656006,316.849823 377.089233,314.021301 
	C379.102753,318.684174 376.945831,322.282990 373.567169,325.341888 
	C363.479553,334.474823 353.621887,343.893890 343.134064,352.546204 
	C318.006958,373.275574 291.251251,391.782501 263.800903,409.291382 
	C262.428589,410.166718 260.967804,410.903320 258.740692,412.160309 
	C258.520660,409.957489 258.233124,408.425171 258.235352,406.893219 
	C258.257751,391.580231 258.412201,376.267090 258.362061,360.954498 
	C258.306519,343.982269 262.206390,328.063202 270.840607,313.425293 
	C272.221008,311.085022 274.533905,309.294739 276.750671,307.199402 
z"/>
<path fill="#6D92F1" opacity="1.000000" stroke="none" 
	d="
M224.004272,296.989746 
	C225.313919,295.672302 226.476593,293.442963 227.960022,293.203888 
	C232.930481,292.402863 238.015503,292.312714 243.513260,291.925262 
	C244.824051,291.950348 245.678268,292.000549 246.956268,292.133301 
	C242.734940,293.000214 238.094528,293.814301 233.442352,294.554352 
	C231.575760,294.851257 229.683273,294.985382 226.492523,295.338623 
	C228.879120,298.637573 230.415161,301.103882 232.282654,303.286560 
	C244.412262,317.463531 250.738937,334.060394 251.490814,352.481812 
	C252.223434,370.431610 251.858765,388.426636 251.941422,406.401978 
	C251.948837,408.015045 251.703461,409.629303 251.432571,413.044800 
	C210.362061,386.388092 171.125244,359.526245 137.250580,325.138245 
	C137.260406,324.728790 137.423401,324.556610 137.729645,324.693878 
	C141.014130,327.239380 143.992371,329.647614 147.123810,332.351624 
	C157.379410,341.454651 167.012619,350.884003 177.685806,358.934601 
	C197.462738,373.852112 217.803665,388.025635 238.022598,402.349670 
	C241.398239,404.741150 245.343964,406.327942 250.340042,408.985413 
	C249.847824,402.584534 249.207108,397.710846 249.148483,392.830170 
	C248.984741,379.194763 249.628708,365.522919 248.823853,351.932373 
	C248.367096,344.219696 245.692719,336.638367 243.985596,328.630676 
	C242.318146,324.838104 240.682144,321.412720 239.008484,317.625122 
	C235.624695,312.183289 232.278580,307.103638 228.847000,301.797302 
	C228.578659,301.283600 228.322556,301.096954 227.814240,300.748474 
	C226.424942,299.320679 225.214600,298.155212 224.004272,296.989746 
z"/>
<path fill="#648FD9" opacity="1.000000" stroke="none" 
	d="
M220.979904,249.050659 
	C222.220901,246.479980 229.488861,244.931595 221.487488,241.198456 
	C224.954788,238.283081 227.794510,235.895401 231.152557,233.352493 
	C234.156143,234.086578 236.641403,234.975891 239.126648,235.865189 
	C242.340363,237.594894 245.554062,239.324600 248.912109,241.733307 
	C249.438187,243.204926 249.819916,243.997543 250.201660,244.790161 
	C250.799667,244.209656 251.397659,243.629135 251.995667,243.048630 
	C252.663849,243.332169 253.332031,243.615692 254.055298,244.573593 
	C254.831940,246.122437 255.553513,246.996918 256.275085,247.871399 
	C256.844391,247.280685 257.413696,246.689972 257.982971,246.099243 
	C261.780487,248.731522 265.577972,251.363815 269.056366,254.433075 
	C265.218689,256.926849 261.700165,258.983673 257.854919,260.905823 
	C255.726837,260.395966 253.925430,260.020721 252.124039,259.645508 
	C251.647568,259.636810 251.171112,259.628113 250.240784,259.179626 
	C246.899933,258.053253 244.012955,257.366669 241.125992,256.680054 
	C240.344940,256.649200 239.563889,256.618347 238.321320,256.197571 
	C237.238266,255.206467 236.616730,254.605316 235.987762,253.629608 
	C235.363510,252.531052 234.746704,251.807068 234.129898,251.083069 
	C233.419067,251.714508 232.708221,252.345932 231.621094,252.940308 
	C227.823196,251.619080 224.401550,250.334869 220.979904,249.050659 
z"/>
<path fill="#98C5E1" opacity="1.000000" stroke="none" 
	d="
M300.126831,198.396667 
	C297.613464,198.090164 294.884796,197.628799 292.248871,196.852402 
	C284.742004,194.641357 277.273010,192.301956 269.112305,189.728821 
	C261.947784,187.297729 255.460083,185.150833 248.972366,183.003952 
	C248.966934,175.327774 249.538071,173.671173 255.973389,172.720245 
	C264.893250,171.402191 274.000458,170.743225 282.939880,174.325897 
	C275.822754,174.381775 268.571136,174.020798 261.315308,173.883133 
	C259.205261,173.843109 256.796570,173.924500 255.047714,174.893799 
	C253.324158,175.849091 251.205338,178.008804 251.218597,179.624023 
	C251.231064,181.144592 253.541229,183.481262 255.283325,184.015884 
	C265.832001,187.253006 276.546661,189.945633 287.122040,193.101059 
	C291.506012,194.409103 295.682861,196.411392 300.126831,198.396667 
z"/>
<path fill="#77ADD5" opacity="1.000000" stroke="none" 
	d="
M134.070343,206.014267 
	C132.305984,212.848679 135.802536,216.280411 141.943344,218.384918 
	C133.231689,217.503525 132.165115,216.307968 132.181915,208.058289 
	C132.227280,185.788254 132.211105,163.518005 132.310059,141.248260 
	C132.318405,139.367813 133.004822,137.490402 133.736450,135.534088 
	C134.065933,146.338989 134.035187,157.221375 134.027985,168.577789 
	C134.044647,173.401474 134.037766,177.751114 134.030579,183.023743 
	C134.036728,187.636688 134.043182,191.326660 134.037186,195.473114 
	C134.039932,199.291153 134.055130,202.652710 134.070343,206.014267 
z"/>
<path fill="#98C5E1" opacity="1.000000" stroke="none" 
	d="
M239.020905,235.542908 
	C236.641403,234.975891 234.156143,234.086578 231.336487,233.075134 
	C225.893661,229.728088 220.785248,226.503189 215.384048,223.123413 
	C211.493683,218.518204 207.896103,214.067871 204.019196,208.975189 
	C202.152161,203.223618 200.564423,198.114380 198.992004,192.609100 
	C199.643112,189.473572 200.278915,186.734085 201.171112,183.832855 
	C201.588043,183.105469 201.748581,182.539810 201.909119,181.974152 
	C202.127197,181.707977 202.345261,181.441803 202.808640,181.084656 
	C203.238708,181.742218 203.759415,182.598694 203.558746,183.223450 
	C199.175980,196.868484 203.801559,208.476135 213.379318,217.549103 
	C220.343307,224.146072 229.299622,228.639496 237.364120,234.076004 
	C237.896439,234.434845 238.398834,234.838058 239.020905,235.542908 
z"/>
<path fill="#5585DE" opacity="1.000000" stroke="none" 
	d="
M258.181610,261.040466 
	C261.700165,258.983673 265.218689,256.926849 269.161316,254.773834 
	C274.052643,256.157379 275.107117,260.060059 276.101593,264.741577 
	C275.983215,266.359528 275.935242,267.191254 275.887268,268.022949 
	C271.561829,267.346649 267.236389,266.670319 262.486267,265.980713 
	C262.061584,265.967407 262.027039,266.090271 262.007019,265.803467 
	C261.560791,264.972443 261.134613,264.428223 260.708405,263.884003 
	C259.966248,263.349091 259.224091,262.814178 258.311707,261.824493 
	C258.141479,261.369720 258.181610,261.040466 258.181610,261.040466 
z"/>
<path fill="#77ADD5" opacity="1.000000" stroke="none" 
	d="
M153.839554,224.495438 
	C158.861069,226.054962 164.067429,227.857925 169.216873,229.811005 
	C177.185944,232.833496 185.153976,235.865097 193.051956,239.066711 
	C200.701111,242.167450 208.261276,245.487717 215.966156,249.002930 
	C208.743073,246.813370 201.278763,244.668564 194.114868,241.779022 
	C180.651260,236.348526 167.361145,230.487915 153.839554,224.495438 
z"/>
<path fill="#6D92F1" opacity="1.000000" stroke="none" 
	d="
M303.851074,280.429108 
	C301.807037,284.079651 299.438080,287.693939 297.032135,291.654510 
	C292.291718,295.346741 287.588287,298.692657 282.530243,302.068390 
	C285.669067,298.901459 289.310181,295.849182 292.617035,292.469818 
	C296.408142,288.595612 299.902710,284.431213 303.851074,280.429108 
z"/>
<path fill="#6D92F1" opacity="1.000000" stroke="none" 
	d="
M132.622467,293.299805 
	C133.258087,294.388031 133.647797,295.805481 134.034088,298.074921 
	C134.027298,302.286682 134.023926,305.646454 134.007385,309.464508 
	C134.057587,315.053711 132.803513,320.493378 137.423401,324.556610 
	C137.423401,324.556610 137.260406,324.728790 137.179703,324.815308 
	C133.715515,323.789124 132.008255,321.496765 132.062943,317.890259 
	C132.185547,309.803467 132.274109,301.716125 132.622467,293.299805 
z"/>
<path fill="#608CE0" opacity="1.000000" stroke="none" 
	d="
M208.044632,267.087524 
	C205.470795,267.690857 202.719345,269.146362 200.373184,268.657349 
	C198.036270,268.170319 196.106079,265.731964 193.970932,263.817688 
	C195.383591,263.505829 196.822861,263.525421 198.768112,263.974731 
	C199.924454,264.565765 200.574829,264.727081 201.225189,264.888367 
	C203.226746,265.114624 205.228302,265.340881 207.599030,265.980927 
	C207.986099,266.626495 208.011566,266.857422 208.044632,267.087524 
z"/>
<path fill="#98C5E1" opacity="1.000000" stroke="none" 
	d="
M332.943054,211.550415 
	C332.589996,212.205841 332.163513,212.526917 331.346344,212.536011 
	C327.656219,210.780258 324.356781,209.336487 321.057373,207.892715 
	C320.570099,207.603073 320.082855,207.313446 319.302246,206.995468 
	C316.371735,205.627777 313.734558,204.288437 310.994202,202.635803 
	C318.217224,205.287033 325.543427,208.251541 332.943054,211.550415 
z"/>
<path fill="#77ADD5" opacity="1.000000" stroke="none" 
	d="
M235.995193,254.004181 
	C236.616730,254.605316 237.238266,255.206467 237.960510,256.039673 
	C231.537018,254.274719 225.012787,252.277756 218.302582,249.974884 
	C218.865402,249.455582 219.614166,249.242203 220.671417,249.039734 
	C224.401550,250.334869 227.823196,251.619080 231.965240,252.983673 
	C233.788834,253.377457 234.892014,253.690811 235.995193,254.004181 
z"/>
<path fill="#6D92F1" opacity="1.000000" stroke="none" 
	d="
M250.257751,292.180054 
	C254.506607,290.170685 259.004944,288.354248 264.076599,286.267395 
	C265.090118,285.999847 265.530396,286.002747 265.970642,286.005676 
	C260.816193,288.128113 255.661728,290.250580 250.257751,292.180054 
z"/>
<path fill="#608CE0" opacity="1.000000" stroke="none" 
	d="
M228.712219,270.218811 
	C225.108292,274.375183 222.697556,274.074127 218.968658,268.802185 
	C220.405334,268.562469 221.867722,268.656189 223.866028,269.167297 
	C225.268616,269.713867 226.135284,269.843018 227.001968,269.972168 
	C227.468628,269.998047 227.935272,270.023926 228.712219,270.218811 
z"/>
<path fill="#6D92F1" opacity="1.000000" stroke="none" 
	d="
M250.468475,272.465759 
	C247.683319,272.749512 244.650726,272.722839 241.338959,272.424438 
	C244.113541,272.153625 247.167297,272.154449 250.468475,272.465759 
z"/>
<path fill="#6D92F1" opacity="1.000000" stroke="none" 
	d="
M275.915771,268.460266 
	C275.935242,267.191254 275.983215,266.359528 276.103149,265.113495 
	C276.372284,267.750488 276.569458,270.801788 276.444031,274.031036 
	C276.062317,272.438477 276.003265,270.668030 275.915771,268.460266 
z"/>
<path fill="#98C5E1" opacity="1.000000" stroke="none" 
	d="
M343.086060,216.482437 
	C340.471710,215.558426 337.747620,214.312241 334.927185,212.749832 
	C337.546021,213.675827 340.261200,214.918060 343.086060,216.482437 
z"/>
<path fill="#77ADD5" opacity="1.000000" stroke="none" 
	d="
M241.330475,256.974091 
	C244.012955,257.366669 246.899933,258.053253 249.919891,259.014771 
	C247.213577,258.615845 244.374252,257.941986 241.330475,256.974091 
z"/>
<path fill="#98C5E1" opacity="1.000000" stroke="none" 
	d="
M374.126312,232.415894 
	C373.087891,232.507782 371.907867,232.296555 370.116089,231.919342 
	C369.016663,231.480148 368.528992,231.206940 368.041290,230.933716 
	C367.360077,230.255905 366.678833,229.578110 365.925507,228.623901 
	C368.563843,229.602615 371.274261,230.857697 374.126312,232.415894 
z"/>
<path fill="#6D92F1" opacity="1.000000" stroke="none" 
	d="
M281.743988,302.202332 
	C280.652435,303.712189 279.213562,305.256805 277.473267,306.931213 
	C278.580139,305.453033 279.988403,303.845093 281.743988,302.202332 
z"/>
<path fill="#98C5E1" opacity="1.000000" stroke="none" 
	d="
M261.979950,211.422791 
	C263.911072,212.070328 265.922791,213.045212 268.029114,214.324844 
	C266.102661,213.669769 264.081635,212.709961 261.979950,211.422791 
z"/>
<path fill="#648FD9" opacity="1.000000" stroke="none" 
	d="
M266.269714,285.926941 
	C265.530396,286.002747 265.090118,285.999847 264.319214,286.001526 
	C263.731445,282.691803 266.067780,282.991852 268.593384,283.234222 
	C269.002136,283.644318 269.006500,283.812286 269.010834,283.980225 
	C268.196808,284.602875 267.382782,285.225525 266.269714,285.926941 
z"/>
<path fill="#6D92F1" opacity="1.000000" stroke="none" 
	d="
M310.067749,267.783142 
	C310.057922,268.762634 310.024933,269.504913 309.684387,270.620911 
	C308.978455,270.980011 308.580078,270.965393 308.181671,270.950775 
	C308.462219,269.457336 308.742767,267.963898 309.326782,266.352417 
	C309.768372,266.671570 309.906494,267.108765 310.067749,267.783142 
z"/>
<path fill="#98C5E1" opacity="1.000000" stroke="none" 
	d="
M361.594910,227.897491 
	C360.487183,226.936493 359.761414,225.987717 358.929688,224.762192 
	C360.564026,225.353043 362.304291,226.220627 364.161987,227.400711 
	C363.511902,227.778717 362.744385,227.844223 361.594910,227.897491 
z"/>
<path fill="#6790D1" opacity="1.000000" stroke="none" 
	d="
M257.785889,245.799896 
	C257.413696,246.689972 256.844391,247.280685 256.275085,247.871399 
	C255.553513,246.996918 254.831940,246.122437 254.132492,244.851730 
	C255.299347,244.803848 256.444061,245.152206 257.785889,245.799896 
z"/>
<path fill="#98C5E1" opacity="1.000000" stroke="none" 
	d="
M308.128784,201.431946 
	C306.541016,201.132339 304.812134,200.524246 302.995880,199.584961 
	C304.601562,199.876984 306.294617,200.500229 308.128784,201.431946 
z"/>
<path fill="#77ADD5" opacity="1.000000" stroke="none" 
	d="
M257.854919,260.905823 
	C258.181610,261.040466 258.141479,261.369720 258.130859,261.534180 
	C256.262390,261.203918 254.404495,260.709198 252.335327,259.929993 
	C253.925430,260.020721 255.726837,260.395966 257.854919,260.905823 
z"/>
<path fill="#608CE0" opacity="1.000000" stroke="none" 
	d="
M215.063553,268.126953 
	C213.420303,267.951324 211.777039,267.775696 210.106461,267.233765 
	C211.465317,266.906891 212.851501,266.946411 214.628830,267.332581 
	C215.019974,267.679260 215.063553,268.126953 215.063553,268.126953 
z"/>
<path fill="#6790D1" opacity="1.000000" stroke="none" 
	d="
M251.811310,242.767532 
	C251.397659,243.629135 250.799667,244.209656 250.201660,244.790161 
	C249.819916,243.997543 249.438187,243.204926 249.088745,242.019958 
	C249.956360,241.913895 250.791656,242.200165 251.811310,242.767532 
z"/>
<path fill="#6D92F1" opacity="1.000000" stroke="none" 
	d="
M164.237335,256.544861 
	C163.131348,256.468536 161.857941,256.129089 160.363892,255.557602 
	C161.452133,255.644272 162.761017,255.962997 164.237335,256.544861 
z"/>
<path fill="#6D92F1" opacity="1.000000" stroke="none" 
	d="
M238.962387,271.620056 
	C237.848526,271.781769 236.581192,271.634674 235.137695,271.247101 
	C236.244003,271.108185 237.526459,271.209717 238.962387,271.620056 
z"/>
<path fill="#6992D7" opacity="1.000000" stroke="none" 
	d="
M376.296722,277.997742 
	C376.252869,276.416565 376.516449,274.828522 377.079926,273.098145 
	C377.397736,274.381958 377.415619,275.808105 377.324371,277.578430 
	C377.011566,277.945312 376.807861,277.968079 376.296722,277.997742 
z"/>
<path fill="#98C5E1" opacity="1.000000" stroke="none" 
	d="
M357.056183,223.526062 
	C356.680878,223.891434 356.212280,223.933167 355.224487,223.743179 
	C354.119965,223.030731 353.534637,222.550003 353.035706,221.979675 
	C353.122101,221.890060 353.303436,221.719498 353.303436,221.719498 
	C354.523254,222.213791 355.743042,222.708099 357.056183,223.526062 
z"/>
<path fill="#98C5E1" opacity="1.000000" stroke="none" 
	d="
M204.900314,173.969727 
	C205.375076,173.330078 205.849838,172.690430 206.644775,172.016083 
	C206.562851,172.969818 206.160751,173.958252 205.372086,174.752289 
	C204.957123,174.361862 204.928711,174.165787 204.900314,173.969727 
z"/>
<path fill="#6D92F1" opacity="1.000000" stroke="none" 
	d="
M226.890533,269.674225 
	C226.135284,269.843018 225.268616,269.713867 224.241272,269.401215 
	C224.980118,269.270538 225.879623,269.323395 226.890533,269.674225 
z"/>
<path fill="#98C5E1" opacity="1.000000" stroke="none" 
	d="
M277.094879,219.326965 
	C277.998199,219.368164 278.964539,219.744751 280.010040,220.439697 
	C279.112122,220.392838 278.134979,220.027618 277.094879,219.326965 
z"/>
<path fill="#6D92F1" opacity="1.000000" stroke="none" 
	d="
M189.411407,263.094543 
	C189.017899,262.876709 188.991547,262.638275 188.949432,262.227051 
	C189.880234,262.164520 190.833984,262.273987 191.860397,262.701233 
	C191.212524,263.037567 190.491959,263.056152 189.411407,263.094543 
z"/>
<path fill="#6D92F1" opacity="1.000000" stroke="none" 
	d="
M307.766846,246.862488 
	C308.001617,247.459747 308.005035,247.914368 307.976013,248.708801 
	C307.350647,247.934814 306.757751,246.821014 306.203644,245.358856 
	C306.673431,245.580292 307.104462,246.150070 307.766846,246.862488 
z"/>
<path fill="#98C5E1" opacity="1.000000" stroke="none" 
	d="
M347.999084,218.566071 
	C347.097931,218.600815 346.090393,218.308655 344.964783,217.712738 
	C345.862030,217.685730 346.877380,217.962463 347.999084,218.566071 
z"/>
<path fill="#77ADD5" opacity="1.000000" stroke="none" 
	d="
M143.051010,219.343842 
	C143.842163,219.392319 144.731934,219.750748 145.781830,220.348984 
	C145.011169,220.277130 144.080414,219.965454 143.051010,219.343842 
z"/>
<path fill="#6D92F1" opacity="1.000000" stroke="none" 
	d="
M305.698792,277.136658 
	C306.019806,277.532806 306.023926,278.003448 305.999695,278.830292 
	C305.590057,279.400665 305.208801,279.614807 304.644592,279.951294 
	C304.768433,279.119507 305.075195,278.165344 305.698792,277.136658 
z"/>
<path fill="#6D92F1" opacity="1.000000" stroke="none" 
	d="
M269.335449,283.966797 
	C269.006500,283.812286 269.002136,283.644318 268.998596,283.223938 
	C269.637512,282.651459 270.275574,282.331421 271.169189,281.961975 
	C270.836517,282.592834 270.248260,283.273071 269.335449,283.966797 
z"/>
<path fill="#98C5E1" opacity="1.000000" stroke="none" 
	d="
M203.481125,179.104218 
	C203.106674,178.730835 203.049438,178.236389 203.245209,177.262329 
	C203.970535,176.519592 204.442871,176.256485 204.915207,175.993362 
	C204.542908,176.989960 204.170609,177.986557 203.481125,179.104218 
z"/>
<path fill="#98C5E1" opacity="1.000000" stroke="none" 
	d="
M350.016632,220.990341 
	C350.020782,220.799530 350.024933,220.608734 350.085510,220.136200 
	C351.094391,220.283707 352.046814,220.712936 353.151337,221.430817 
	C353.303436,221.719498 353.122101,221.890060 352.724731,221.932678 
	C351.557129,221.646988 350.786896,221.318665 350.016632,220.990341 
z"/>
<path fill="#7AB7DC" opacity="1.000000" stroke="none" 
	d="
M204.983902,175.785645 
	C204.442871,176.256485 203.970535,176.519592 203.247955,176.889526 
	C203.411011,176.033157 203.824310,175.069977 204.568970,174.038269 
	C204.928711,174.165787 204.957123,174.361862 205.043213,174.850494 
	C205.100922,175.143066 205.052597,175.577942 204.983902,175.785645 
z"/>
<path fill="#98C5E1" opacity="1.000000" stroke="none" 
	d="
M258.067505,209.322830 
	C258.660339,209.296921 259.303131,209.589325 260.058899,210.127472 
	C259.487091,210.129211 258.802246,209.885162 258.067505,209.322830 
z"/>
<path fill="#6D92F1" opacity="1.000000" stroke="none" 
	d="
M134.887512,247.756836 
	C134.594162,248.027054 134.272659,248.040161 133.714920,248.036041 
	C133.579651,247.623978 133.680084,247.215851 133.780487,246.807709 
	C134.140305,247.042801 134.500107,247.277893 134.887512,247.756836 
z"/>
<path fill="#98C5E1" opacity="1.000000" stroke="none" 
	d="
M292.106995,229.283798 
	C292.717560,229.304794 293.362640,229.647964 294.094482,230.262451 
	C293.501343,230.224533 292.821411,229.915253 292.106995,229.283798 
z"/>
<path fill="#98C5E1" opacity="1.000000" stroke="none" 
	d="
M284.043640,223.330933 
	C284.663086,223.353592 285.323425,223.696442 286.071777,224.318100 
	C285.468048,224.281662 284.776276,223.966385 284.043640,223.330933 
z"/>
<path fill="#77ADD5" opacity="1.000000" stroke="none" 
	d="
M139.663971,132.768738 
	C139.390808,133.277863 138.892532,133.609894 138.134567,133.946945 
	C138.396210,133.498535 138.917542,133.045105 139.663971,132.768738 
z"/>
<path fill="#6D92F1" opacity="1.000000" stroke="none" 
	d="
M208.395645,267.064514 
	C208.011566,266.857422 207.986099,266.626495 207.947998,266.230469 
	C208.589615,266.144440 209.251465,266.222717 210.026855,266.572388 
	C209.675827,266.909698 209.211243,266.975586 208.395645,267.064514 
z"/>
<path fill="#6992D7" opacity="1.000000" stroke="none" 
	d="
M307.913940,249.364655 
	C308.472168,249.570541 308.985504,250.118607 309.063904,250.846298 
	C308.628937,251.025925 308.190125,251.040665 308.190125,251.040665 
	C308.083130,250.596054 307.976105,250.151459 307.913940,249.364655 
z"/>
<path fill="#6D92F1" opacity="1.000000" stroke="none" 
	d="
M151.843018,252.740448 
	C151.360870,252.839188 150.820007,252.659317 150.159515,252.312378 
	C150.621368,252.250809 151.202835,252.356308 151.843018,252.740448 
z"/>
<path fill="#6992D7" opacity="1.000000" stroke="none" 
	d="
M308.047913,271.270081 
	C308.580078,270.965393 308.978455,270.980011 309.675934,270.992615 
	C309.492889,271.635132 309.010773,272.279663 308.191254,272.943176 
	C307.873962,272.504578 307.894043,272.046997 308.047913,271.270081 
z"/>
<path fill="#6D92F1" opacity="1.000000" stroke="none" 
	d="
M308.000641,251.196594 
	C308.190125,251.040665 308.628937,251.025925 308.848816,251.040787 
	C309.047424,251.514572 309.026215,251.973495 308.964355,252.776031 
	C308.552856,252.530624 308.182007,251.941574 308.000641,251.196594 
z"/>
<path fill="#6D92F1" opacity="1.000000" stroke="none" 
	d="
M158.014420,254.654373 
	C157.477249,254.720566 156.845230,254.506042 156.103088,254.066910 
	C156.635178,254.019424 157.277359,254.196533 158.014420,254.654373 
z"/>
<path fill="#77ADD5" opacity="1.000000" stroke="none" 
	d="
M261.577698,268.943817 
	C261.583466,269.535675 261.307495,270.238708 260.739868,271.016846 
	C260.730804,270.412964 261.013367,269.734009 261.577698,268.943817 
z"/>
<path fill="#98C5E1" opacity="1.000000" stroke="none" 
	d="
M273.894714,217.487442 
	C274.505524,217.491684 275.220795,217.794693 276.022186,218.399780 
	C275.405243,218.396622 274.702240,218.091415 273.894714,217.487442 
z"/>
<path fill="#6D92F1" opacity="1.000000" stroke="none" 
	d="
M170.000076,257.703003 
	C169.519684,257.848816 168.981750,257.746216 168.270950,257.427612 
	C168.712906,257.292603 169.327713,257.373596 170.000076,257.703003 
z"/>
<path fill="#6D92F1" opacity="1.000000" stroke="none" 
	d="
M178.050583,259.629852 
	C177.543686,259.750549 176.920044,259.600800 176.164444,259.258423 
	C176.666275,259.163635 177.300049,259.261505 178.050583,259.629852 
z"/>
<path fill="#6D92F1" opacity="1.000000" stroke="none" 
	d="
M183.125961,260.647766 
	C182.663834,260.836273 182.108185,260.788971 181.353592,260.546875 
	C181.780579,260.372070 182.406509,260.391968 183.125961,260.647766 
z"/>
<path fill="#6D92F1" opacity="1.000000" stroke="none" 
	d="
M215.393402,268.101990 
	C215.063553,268.126953 215.019974,267.679260 215.028473,267.455078 
	C215.680603,267.304016 216.324234,267.377075 217.004745,267.703644 
	C216.602158,267.997101 216.162689,268.037048 215.393402,268.101990 
z"/>
<path fill="#6D92F1" opacity="1.000000" stroke="none" 
	d="
M201.096741,264.619263 
	C200.574829,264.727081 199.924454,264.565765 199.142395,264.193726 
	C199.663223,264.105408 200.315750,264.227783 201.096741,264.619263 
z"/>
<path fill="#77ADD5" opacity="1.000000" stroke="none" 
	d="
M260.588959,264.159546 
	C261.134613,264.428223 261.560791,264.972443 261.943207,265.804535 
	C261.422791,265.539948 260.946136,264.987518 260.588959,264.159546 
z"/>
<path fill="#77ADD5" opacity="1.000000" stroke="none" 
	d="
M152.022430,223.228424 
	C152.202209,223.036835 152.493347,223.138565 152.855530,223.575729 
	C152.674881,223.717331 152.410629,223.587524 152.022430,223.228424 
z"/>
<path fill="#77ADD5" opacity="1.000000" stroke="none" 
	d="
M149.068588,222.178101 
	C149.218323,222.019760 149.479828,222.105743 149.825180,222.464752 
	C149.685196,222.563324 149.442307,222.458206 149.068588,222.178101 
z"/>
<path fill="#78B6DB" opacity="1.000000" stroke="none" 
	d="
M261.507263,156.032211 
	C261.069153,141.546478 261.103363,127.059135 260.946594,112.573860 
	C260.891113,107.448006 260.449249,102.320808 260.037506,97.205986 
	C259.672272,92.668373 261.207550,91.147301 265.430450,92.729980 
	C272.509918,95.383255 279.451324,98.402946 286.471558,101.216705 
	C297.206604,105.519386 307.955658,109.787148 318.705658,114.052383 
	C326.354919,117.087364 333.993256,120.151970 341.676727,123.098305 
	C351.434692,126.840141 361.219574,130.513214 371.022308,134.136230 
	C374.332672,135.359711 376.247559,137.190506 376.078796,141.095245 
	C375.820190,147.079025 376.004395,153.081940 375.988708,159.547256 
	C370.481049,158.410919 365.315735,158.736267 360.166931,161.676712 
	C358.157501,162.824295 355.368561,162.910416 352.927185,162.944672 
	C343.363098,163.078934 333.793549,163.117065 324.231598,162.920990 
	C321.676331,162.868591 319.083405,162.038742 316.606628,161.253891 
	C308.270233,158.612228 300.098846,155.311508 291.614136,153.339462 
	C287.863770,152.467819 283.524384,154.302658 279.431702,154.690323 
	C273.599274,155.242783 267.747742,155.594147 261.507263,156.032211 
z"/>
<path fill="#73A2D0" opacity="1.000000" stroke="none" 
	d="
M336.878876,185.139771 
	C333.845978,184.432220 330.813049,183.724670 327.394714,182.982910 
	C327.037964,176.715057 327.564606,176.022385 333.742188,176.056183 
	C337.528809,176.076904 341.317841,176.957169 345.096130,176.891739 
	C351.045441,176.788696 356.982391,176.102615 362.932678,175.877899 
	C366.999268,175.724335 371.079651,175.935898 375.571838,175.995895 
	C376.001038,178.376144 376.012299,180.744720 375.623077,183.551392 
	C372.263458,184.362732 369.228668,184.438919 366.360443,185.169266 
	C359.798340,186.840210 353.404236,187.627441 346.682831,185.535019 
	C343.666168,184.595932 340.161896,185.223251 336.878876,185.139771 
z"/>
<path fill="#73A2D0" opacity="1.000000" stroke="none" 
	d="
M248.659119,182.871643 
	C255.460083,185.150833 261.947784,187.297729 268.717651,189.725754 
	C268.454224,194.675171 264.809082,195.777481 261.142548,197.025360 
	C257.173248,198.376266 253.291290,199.983810 249.162262,201.764801 
	C245.707581,199.251450 242.461884,196.452728 239.056915,193.350967 
	C242.858826,191.259460 245.835129,188.743652 246.120667,183.959808 
	C246.147491,183.510315 247.570877,183.144180 248.659119,182.871643 
z"/>
<path fill="#3265F0" opacity="1.000000" stroke="none" 
	d="
M349.001404,344.587524 
	C343.926331,348.926178 338.899445,352.908142 333.762878,356.743164 
	C326.638214,362.062561 319.399780,367.229370 312.269196,372.540955 
	C306.497314,376.840485 300.950653,381.454346 295.057739,385.576599 
	C285.896942,391.984741 276.550507,398.129395 267.225647,404.299469 
	C265.376282,405.523163 263.269714,406.358215 260.970032,407.531525 
	C260.970032,388.819702 260.510498,370.869812 261.182892,352.962372 
	C261.476044,345.155304 264.090179,337.435394 265.808197,329.334778 
	C268.992828,327.408051 271.707703,327.650269 275.167023,328.668671 
	C285.103485,331.593781 295.349701,331.123474 305.700836,330.446991 
	C319.727325,329.530334 333.911407,328.694824 347.794067,332.196014 
	C350.606110,332.905182 351.624725,335.009583 350.408478,338.048004 
	C349.640167,339.967407 349.450134,342.118286 349.001404,344.587524 
z"/>
<path fill="#4174E9" opacity="1.000000" stroke="none" 
	d="
M134.020538,309.006256 
	C134.023926,305.646454 134.027298,302.286682 134.054123,298.470581 
	C153.110367,298.165070 172.197449,294.605927 191.173828,298.848511 
	C191.971405,299.026794 192.828156,298.922852 193.652130,299.003448 
	C200.522125,299.675507 207.529510,299.745514 214.212234,301.252747 
	C218.810654,302.289948 221.406433,300.869232 223.952103,297.336578 
	C225.214600,298.155212 226.424942,299.320679 227.915375,300.963531 
	C228.385330,301.705811 228.630997,301.900146 228.932465,302.023956 
	C232.278580,307.103638 235.624695,312.183289 238.603699,317.636993 
	C232.716293,319.975464 227.345596,320.455048 222.249908,316.717255 
	C221.519501,316.181458 220.372452,316.144135 219.399841,316.018585 
	C206.160629,314.309387 192.933304,312.490845 179.669144,311.000916 
	C174.332230,310.401459 168.911682,310.562714 163.531219,310.331177 
	C153.693542,309.907837 143.857346,309.449829 134.020538,309.006256 
z"/>
<path fill="#6A93CE" opacity="1.000000" stroke="none" 
	d="
M367.901245,231.250763 
	C368.528992,231.206940 369.016663,231.480148 369.753021,231.882996 
	C369.476257,232.988098 368.950867,233.963593 368.425476,234.939087 
	C368.036713,234.790405 367.647949,234.641739 367.259186,234.493057 
	C367.426514,233.517975 367.593842,232.542892 367.901245,231.250763 
z"/>
<path fill="#73A2D0" opacity="1.000000" stroke="none" 
	d="
M200.914703,183.994598 
	C200.278915,186.734085 199.643112,189.473572 198.559998,192.607620 
	C193.187408,193.334793 188.266052,193.852097 183.335907,193.957245 
	C175.719345,194.119644 168.096191,193.945587 160.477036,194.026917 
	C157.388031,194.059906 154.304672,194.460342 151.214371,194.567657 
	C145.494492,194.766251 139.771393,194.872147 134.049637,195.016647 
	C134.043182,191.326660 134.036728,187.636688 134.052460,183.489853 
	C139.854599,182.892517 145.601135,184.740280 151.402542,181.379364 
	C153.723572,180.034714 157.804947,182.071182 161.055710,181.923416 
	C170.100800,181.512238 179.123474,180.546265 188.169708,180.252197 
	C191.861786,180.132187 195.591782,181.178802 199.672028,182.138916 
	C200.331238,183.053635 200.622971,183.524124 200.914703,183.994598 
z"/>
<path fill="#7AB7DC" opacity="1.000000" stroke="none" 
	d="
M201.171112,183.832855 
	C200.622971,183.524124 200.331238,183.053635 200.025299,182.292191 
	C200.433594,181.997879 200.856079,181.994537 201.593842,181.982666 
	C201.748581,182.539810 201.588043,183.105469 201.171112,183.832855 
z"/>
<path fill="#6F98CC" opacity="1.000000" stroke="none" 
	d="
M337.144043,185.400848 
	C340.161896,185.223251 343.666168,184.595932 346.682831,185.535019 
	C353.404236,187.627441 359.798340,186.840210 366.360443,185.169266 
	C369.228668,184.438919 372.263458,184.362732 375.611938,183.995346 
	C376.001221,188.790756 376.001221,193.580307 376.001221,199.668823 
	C362.574493,194.795624 349.991852,190.228760 337.144043,185.400848 
z"/>
<path fill="#6F98CC" opacity="1.000000" stroke="none" 
	d="
M134.037186,195.473114 
	C139.771393,194.872147 145.494492,194.766251 151.214371,194.567657 
	C154.304672,194.460342 157.388031,194.059906 160.477036,194.026917 
	C168.096191,193.945587 175.719345,194.119644 183.335907,193.957245 
	C188.266052,193.852097 193.187408,193.334793 198.544708,193.003662 
	C200.564423,198.114380 202.152161,203.223618 203.872192,208.666412 
	C200.731567,208.674179 197.464035,208.272217 194.184479,208.039536 
	C188.516174,207.637375 182.843658,207.266006 177.167007,207.016235 
	C168.146591,206.619370 159.122849,206.278610 150.097458,206.021255 
	C145.000961,205.875946 139.898376,205.944733 134.434418,205.965683 
	C134.055130,202.652710 134.039932,199.291153 134.037186,195.473114 
z"/>
<path fill="#7399CC" opacity="1.000000" stroke="none" 
	d="
M321.039246,208.314072 
	C324.356781,209.336487 327.656219,210.780258 331.062744,212.561432 
	C329.225250,212.930969 327.276672,212.895416 325.337036,213.010681 
	C322.255402,213.193817 320.736084,211.901077 321.039246,208.314072 
z"/>
<path fill="#7399CC" opacity="1.000000" stroke="none" 
	d="
M349.753113,221.202118 
	C350.786896,221.318665 351.557129,221.646988 352.638367,222.022278 
	C353.534637,222.550003 354.119965,223.030731 354.871399,223.746094 
	C349.725647,224.696808 349.725647,224.696808 349.753113,221.202118 
z"/>
<path fill="#3366F0" opacity="1.000000" stroke="none" 
	d="
M244.017059,328.997864 
	C245.692719,336.638367 248.367096,344.219696 248.823853,351.932373 
	C249.628708,365.522919 248.984741,379.194763 249.148483,392.830170 
	C249.207108,397.710846 249.847824,402.584534 250.340042,408.985413 
	C245.343964,406.327942 241.398239,404.741150 238.022598,402.349670 
	C217.803665,388.025635 197.462738,373.852112 177.685806,358.934601 
	C167.012619,350.884003 157.379410,341.454651 147.139862,331.957275 
	C147.736588,326.074280 151.560776,326.937286 155.043137,327.186707 
	C168.024734,328.116394 181.003113,329.092346 193.986923,329.989594 
	C199.440018,330.366425 204.903000,330.812317 210.362732,330.829529 
	C217.852921,330.853180 225.459137,332.840393 232.762848,329.031769 
	C236.269211,327.203247 240.260788,326.802216 244.017059,328.997864 
z"/>
<path fill="#396DED" opacity="1.000000" stroke="none" 
	d="
M243.985596,328.630676 
	C240.260788,326.802216 236.269211,327.203247 232.762848,329.031769 
	C225.459137,332.840393 217.852921,330.853180 210.362732,330.829529 
	C204.903000,330.812317 199.440018,330.366425 193.986923,329.989594 
	C181.003113,329.092346 168.024734,328.116394 155.043137,327.186707 
	C151.560776,326.937286 147.736588,326.074280 146.986649,331.661560 
	C143.992371,329.647614 141.014130,327.239380 137.729645,324.693878 
	C132.803513,320.493378 134.057587,315.053711 134.007385,309.464508 
	C143.857346,309.449829 153.693542,309.907837 163.531219,310.331177 
	C168.911682,310.562714 174.332230,310.401459 179.669144,311.000916 
	C192.933304,312.490845 206.160629,314.309387 219.399841,316.018585 
	C220.372452,316.144135 221.519501,316.181458 222.249908,316.717255 
	C227.345596,320.455048 232.716293,319.975464 238.641357,317.999146 
	C240.682144,321.412720 242.318146,324.838104 243.985596,328.630676 
z"/>
<path fill="#5081E3" opacity="1.000000" stroke="none" 
	d="
M228.847000,301.797302 
	C228.630997,301.900146 228.385330,301.705811 228.094330,301.225861 
	C228.322556,301.096954 228.578659,301.283600 228.847000,301.797302 
z"/>
<path fill="#6790D1" opacity="1.000000" stroke="none" 
	d="
M235.987762,253.629608 
	C234.892014,253.690811 233.788834,253.377457 232.341522,253.020721 
	C232.708221,252.345932 233.419067,251.714508 234.129898,251.083069 
	C234.746704,251.807068 235.363510,252.531052 235.987762,253.629608 
z"/>
</svg>